HIERARCHY
ROOT Hips
{
    OFFSET   0.000000   0.000000   0.000000
    CHANNELS 6 Xposition Yposition Zposition Zrotation Xrotation Yrotation
    JOINT Chest
    {
        OFFSET   0.000000   8.007230   0.000000
        CHANNELS 3 Zrotation Xrotation Yrotation
        JOINT Chest2
        {
            OFFSET   0.000000  22.077100   0.000000
            CHANNELS 3 Zrotation Xrotation Yrotation
            JOINT Neck
            {
                OFFSET   0.000000  23.255100   0.000000
                CHANNELS 3 Zrotation Xrotation Yrotation
                JOINT Head
                {
                    OFFSET   0.000000  14.370100   1.956600
                    CHANNELS 3 Zrotation Xrotation Yrotation
                    End Site
                    {
                        OFFSET   0.000000  19.566000   0.000000
                    }
                }
            }
            JOINT LeftCollar
            {
                OFFSET   3.911900  19.017000  -0.467063
                CHANNELS 3 Zrotation Xrotation Yrotation
                JOINT LeftShoulder
                {
                    OFFSET  10.383700   0.000000   0.000000
                    CHANNELS 3 Zrotation Xrotation Yrotation
                    JOINT LeftElbow
                    {
                        OFFSET  26.662100   0.001193   0.000980
                        CHANNELS 3 Zrotation Xrotation Yrotation
                        JOINT LeftWrist
                        {
                            OFFSET  28.869000  -0.000059  -0.000082
                            CHANNELS 3 Zrotation Xrotation Yrotation
                            JOINT LeftFinger0
                            {
                                OFFSET   2.044650  -2.323450   3.252850
                                CHANNELS 3 Zrotation Xrotation Yrotation
                                JOINT LeftFinger01
                                {
                                    OFFSET   3.088130   0.000000   0.000000
                                    CHANNELS 3 Zrotation Xrotation Yrotation
                                    JOINT LeftFinger02
                                    {
                                        OFFSET   2.639460   0.000000   0.000000
                                        CHANNELS 3 Zrotation Xrotation Yrotation
                                        End Site
                                        {
                                            OFFSET   2.582190   0.000000   0.000000
                                        }
                                    }
                                }
                            }
                            JOINT LeftFinger1
                            {
                                OFFSET   8.364480   0.000000   3.252850
                                CHANNELS 3 Zrotation Xrotation Yrotation
                                JOINT LeftFinger11
                                {
                                    OFFSET   4.646930   0.000000   0.000000
                                    CHANNELS 3 Zrotation Xrotation Yrotation
                                    JOINT LeftFinger12
                                    {
                                        OFFSET   2.323470   0.000000   0.000000
                                        CHANNELS 3 Zrotation Xrotation Yrotation
                                        End Site
                                        {
                                            OFFSET   2.273050   0.000000   0.000000
                                        }
                                    }
                                }
                            }
                            JOINT LeftFinger2
                            {
                                OFFSET   8.364490   0.000016   1.078090
                                CHANNELS 3 Zrotation Xrotation Yrotation
                                JOINT LeftFinger21
                                {
                                    OFFSET   5.111610   0.000000   0.000000
                                    CHANNELS 3 Zrotation Xrotation Yrotation
                                    JOINT LeftFinger22
                                    {
                                        OFFSET   2.788150   0.000016   0.000000
                                        CHANNELS 3 Zrotation Xrotation Yrotation
                                        End Site
                                        {
                                            OFFSET   2.727660   0.000000   0.000000
                                        }
                                    }
                                }
                            }
                            JOINT LeftFinger3
                            {
                                OFFSET   7.899780   0.000015  -1.078090
                                CHANNELS 3 Zrotation Xrotation Yrotation
                                JOINT LeftFinger31
                                {
                                    OFFSET   4.646930   0.000000   0.000000
                                    CHANNELS 3 Zrotation Xrotation Yrotation
                                    JOINT LeftFinger32
                                    {
                                        OFFSET   2.323470   0.000000   0.000000
                                        CHANNELS 3 Zrotation Xrotation Yrotation
                                        End Site
                                        {
                                            OFFSET   2.273050   0.000000   0.000000
                                        }
                                    }
                                }
                            }
                            JOINT LeftFinger4
                            {
                                OFFSET   7.435090   0.000000  -3.252850
                                CHANNELS 3 Zrotation Xrotation Yrotation
                                JOINT LeftFinger41
                                {
                                    OFFSET   3.717550   0.000000   0.000000
                                    CHANNELS 3 Zrotation Xrotation Yrotation
                                    JOINT LeftFinger42
                                    {
                                        OFFSET   1.858770   0.000000   0.000000
                                        CHANNELS 3 Zrotation Xrotation Yrotation
                                        End Site
                                        {
                                            OFFSET   1.818440   0.000000   0.000000
                                        }
                                    }
                                }
                            }
                        }
                    }
                }
            }
            JOINT RightCollar
            {
                OFFSET  -3.911910  19.017000  -0.467062
                CHANNELS 3 Zrotation Xrotation Yrotation
                JOINT RightShoulder
                {
                    OFFSET -10.383700   0.000014   0.000000
                    CHANNELS 3 Zrotation Xrotation Yrotation
                    JOINT RightElbow
                    {
                        OFFSET -26.662100   0.001225   0.001091
                        CHANNELS 3 Zrotation Xrotation Yrotation
                        JOINT RightWrist
                        {
                            OFFSET -28.869000  -0.000020  -0.000085
                            CHANNELS 3 Zrotation Xrotation Yrotation
                            JOINT RightFinger0
                            {
                                OFFSET  -2.044650  -2.323490   3.252850
                                CHANNELS 3 Zrotation Xrotation Yrotation
                                JOINT RightFinger01
                                {
                                    OFFSET  -3.088130   0.000000   0.000000
                                    CHANNELS 3 Zrotation Xrotation Yrotation
                                    JOINT RightFinger02
                                    {
                                        OFFSET  -2.639460   0.000000   0.000000
                                        CHANNELS 3 Zrotation Xrotation Yrotation
                                        End Site
                                        {
                                            OFFSET  -2.582190   0.000000   0.000000
                                        }
                                    }
                                }
                            }
                            JOINT RightFinger1
                            {
                                OFFSET  -8.364480   0.000000   3.252850
                                CHANNELS 3 Zrotation Xrotation Yrotation
                                JOINT RightFinger11
                                {
                                    OFFSET  -4.646930   0.000000   0.000000
                                    CHANNELS 3 Zrotation Xrotation Yrotation
                                    JOINT RightFinger12
                                    {
                                        OFFSET  -2.323470   0.000000   0.000000
                                        CHANNELS 3 Zrotation Xrotation Yrotation
                                        End Site
                                        {
                                            OFFSET  -2.273050   0.000000   0.000000
                                        }
                                    }
                                }
                            }
                            JOINT RightFinger2
                            {
                                OFFSET  -8.364480   0.000000   1.078090
                                CHANNELS 3 Zrotation Xrotation Yrotation
                                JOINT RightFinger21
                                {
                                    OFFSET  -5.111620   0.000000   0.000000
                                    CHANNELS 3 Zrotation Xrotation Yrotation
                                    JOINT RightFinger22
                                    {
                                        OFFSET  -2.788160   0.000000   0.000000
                                        CHANNELS 3 Zrotation Xrotation Yrotation
                                        End Site
                                        {
                                            OFFSET  -2.727660   0.000000   0.000000
                                        }
                                    }
                                }
                            }
                            JOINT RightFinger3
                            {
                                OFFSET  -7.899780   0.000000  -1.078090
                                CHANNELS 3 Zrotation Xrotation Yrotation
                                JOINT RightFinger31
                                {
                                    OFFSET  -4.646930   0.000000   0.000000
                                    CHANNELS 3 Zrotation Xrotation Yrotation
                                    JOINT RightFinger32
                                    {
                                        OFFSET  -2.323470   0.000000   0.000000
                                        CHANNELS 3 Zrotation Xrotation Yrotation
                                        End Site
                                        {
                                            OFFSET  -2.273050   0.000000   0.000000
                                        }
                                    }
                                }
                            }
                            JOINT RightFinger4
                            {
                                OFFSET  -7.435090   0.000000  -3.252850
                                CHANNELS 3 Zrotation Xrotation Yrotation
                                JOINT RightFinger41
                                {
                                    OFFSET  -3.717550   0.000000   0.000000
                                    CHANNELS 3 Zrotation Xrotation Yrotation
                                    JOINT RightFinger42
                                    {
                                        OFFSET  -1.858760   0.000000   0.000000
                                        CHANNELS 3 Zrotation Xrotation Yrotation
                                        End Site
                                        {
                                            OFFSET  -1.818440   0.000000   0.000000
                                        }
                                    }
                                }
                            }
                        }
                    }
                }
            }
        }
    }
    JOINT LeftHip
    {
        OFFSET   9.783030   0.000000   0.000000
        CHANNELS 3 Zrotation Xrotation Yrotation
        JOINT LeftKnee
        {
            OFFSET   0.000063 -41.789100   0.000608
            CHANNELS 3 Zrotation Xrotation Yrotation
            JOINT LeftAnkle
            {
                OFFSET   0.000048 -41.133200  -0.000184
                CHANNELS 3 Zrotation Xrotation Yrotation
                JOINT LeftToe
                {
                    OFFSET   0.000000  -6.358960  14.674500
                    CHANNELS 3 Zrotation Xrotation Yrotation
                    End Site
                    {
                        OFFSET   0.000000   0.000000   3.913200
                    }
                }
            }
        }
    }
    JOINT RightHip
    {
        OFFSET  -9.783030   0.000000   0.000000
        CHANNELS 3 Zrotation Xrotation Yrotation
        JOINT RightKnee
        {
            OFFSET   0.000071 -41.789100   0.001239
            CHANNELS 3 Zrotation Xrotation Yrotation
            JOINT RightAnkle
            {
                OFFSET   0.000037 -41.133200  -0.000166
                CHANNELS 3 Zrotation Xrotation Yrotation
                JOINT RightToe
                {
                    OFFSET   0.000000  -6.358960  14.674500
                    CHANNELS 3 Zrotation Xrotation Yrotation
                    End Site
                    {
                        OFFSET   0.000000   0.000000   3.913200
                    }
                }
            }
        }
    }
}
MOTION
Frames: 6
Frame Time:   0.016667
  0.219946  89.533300   0.543254  -2.268040  -3.420540  -4.574210   0.822805   1.606500   0.665163   1.627860   3.222280   1.307940   1.173930   1.630450  -0.039315   1.939560   3.302000  -3.188540  -3.209030  -0.801105   0.170430 -77.533000  17.479700   3.863060  -1.744460  -8.910250 -14.849000  12.784300 -17.596600   5.162710  40.219600  29.625500 -68.069300 -23.639300  -0.005292  -0.002259  -6.819630   0.002424  -0.036601 -23.077500   3.222160  -7.515100 -19.054800   0.017070  -0.002332 -13.338400   0.012003   0.001390 -27.385500   0.545542  -1.053020 -28.675700  -0.004335   0.007769 -19.098000   0.017744   0.013551 -24.648200   0.494642  -1.077870 -24.652900   0.001451   0.001440 -16.418800  -0.001939   0.004315 -26.720200   0.533306  -1.059280 -40.087700  -0.004525   0.006030 -26.698400   0.004483   0.004979   7.541140   0.887921   3.959290  72.626300   9.971650  -6.496550  -0.082499  -8.408400  11.590600  -6.915440  -6.550090   2.581720 -43.244100  38.713300  81.226700  22.461800  -0.000240  -0.000322   6.230930   0.010451   0.008637  25.777400   4.866370   9.962860  21.437800  -0.012369   0.002220  15.006500  -0.003897   0.000163  27.590800   2.447290   4.671310  30.178500  -0.002891   0.004246  20.098900  -0.002086   0.004200  25.807400   1.457780   3.011690  25.845800  -0.005610   0.005794  17.213300  -0.001719   0.006005  28.032500   1.553840   2.915450  42.108100  -0.008163   0.003784  28.043900  -0.002216   0.005965   1.188610   6.757410   4.036460   0.939303   0.291399   7.365420  -1.303730  -4.981510   2.889920  -0.000000   0.000000   0.000000   2.758870   5.636070  -5.936110  -0.019662   1.332670  -2.642730  -1.683030  -4.022040   1.792400  -0.000000   0.000000  -0.000000
  0.219897  89.533300   0.540102  -2.273870  -3.421880  -4.585300   0.822743   1.613150   0.664489   1.627680   3.235570   1.306500   1.177440   1.631250  -0.039315   1.942400   3.303490  -3.188540  -3.209030  -0.801252   0.171573 -77.534100  17.493600   3.863500  -1.745450  -8.951140 -14.851700  12.799100 -17.713800   5.184530  40.257400  29.701100 -68.147600 -23.636100  -0.005308  -0.002277  -6.818010   0.002423  -0.041450 -23.092600   3.236670  -7.543050 -19.068600   0.025964  -0.013078 -13.348000   0.020050  -0.004781 -27.386300   0.552149  -1.065710 -28.682300  -0.004334  -0.006218 -19.102400   0.036137   0.009475 -24.651700   0.500683  -1.090840 -24.656500   0.001456  -0.007930 -16.421200  -0.001941   0.000197 -26.715700   0.539595  -1.072130 -40.081200  -0.004525   0.001032 -26.694100   0.015025   0.005220   7.548630   0.871960   3.966490  72.614500   9.967200  -6.502710  -0.107612  -8.403530  11.651500  -6.863160  -6.584730   2.644190 -43.209500  38.716100  81.242500  22.586400  -0.000240  -0.000322   6.293210   0.010456   0.008638  25.739900   4.865530   9.971260  21.407100  -0.012376   0.002211  14.985000  -0.003891   0.000081  27.591900   2.452220   4.680500  30.186500  -0.002865   0.004244  20.104200  -0.002064   0.004200  25.808300   1.473670   3.044680  25.848100  -0.005583   0.005793  17.214800  -0.001697   0.006005  27.994400   1.559280   2.930410  42.051400  -0.008163   0.003777  28.006200  -0.002212   0.005952   1.197160   6.747720   4.036630   0.932778   0.327859   7.367700  -1.305570  -4.999240   2.897110  -0.000000   0.000000  -0.000000   2.758720   5.634660  -5.936010  -0.011733   1.328590  -2.640430  -1.686410  -4.012420   1.797700   0.000000   0.000000  -0.000000
  0.219812  89.533300   0.534638  -2.284380  -3.425750  -4.607610   0.822638   1.624710   0.662770   1.627390   3.258670   1.302910   1.185070   1.634890  -0.039311   1.951310   3.310710  -3.188540  -3.208940  -0.801456   0.179571 -77.536300  17.522300   3.864310  -1.750770  -9.005960 -14.858400  12.816000 -17.830800   5.213040  40.301900  29.806100 -68.268600 -23.632800  -0.005324  -0.002295  -6.816400   0.002419  -0.046299 -23.124100   3.259710  -7.584650 -19.096600   0.034859  -0.028806 -13.367600   0.028096  -0.014289 -27.389500   0.562327  -1.085170 -28.701300  -0.004332  -0.026558 -19.115100   0.054530   0.001884 -24.663600   0.510082  -1.110690 -24.668500   0.001467  -0.022289 -16.429200  -0.001942  -0.006714 -26.711200   0.549450  -1.091760 -40.074700  -0.004525  -0.007636 -26.689700   0.030553   0.005461   7.563200   0.842761   3.984490  72.597500   9.957980  -6.515760  -0.166731  -8.378510  11.771700  -6.807610  -6.619220   2.734420 -43.152100  38.720900  81.268700  22.769100  -0.000244  -0.000323   6.384580   0.010464   0.008641  25.701200   4.864490   9.992530  21.376500  -0.012398   0.002193  14.963500  -0.003879   0.000000  27.597300   2.465970   4.705620  30.221100  -0.002814   0.004241  20.127200  -0.002017   0.004199  25.823300   1.506750   3.110710  25.864300  -0.005523   0.005791  17.225600  -0.001654   0.006005  27.956200   1.564710   2.945380  41.994700  -0.008163   0.003755  27.968500  -0.002203   0.005919   1.210730   6.738030   4.036800   0.924291   0.364315   7.375200  -1.307680  -5.016940   2.910660  -0.000000   0.000000   0.000000   2.758580   5.633240  -5.935840   0.000118   1.320520  -2.635120  -1.691940  -3.994370   1.810950   0.000000   0.000000  -0.000000
  0.219738  89.533200   0.529643  -2.294100  -3.431950  -4.632910   0.822537   1.634810   0.659963   1.627190   3.278840   1.297170   1.194730   1.642390  -0.039249   1.966850   3.325930  -3.184930  -3.204580  -0.801530   0.198095 -77.538000  17.553900   3.865060  -1.756200  -9.017110 -14.869200  12.832800 -17.823300   5.220880  40.288000  29.853100 -68.355400 -23.655400  -0.005322  -0.002253  -6.827700   0.002407  -0.037350 -23.167400   3.278830  -7.611320 -19.133700   0.033168  -0.037991 -13.393600   0.027668  -0.020589 -27.398000   0.570004  -1.099560 -28.741400  -0.004329  -0.037983 -19.141800   0.053499  -0.008093 -24.691100   0.517470  -1.125240 -24.696100   0.001481  -0.032875 -16.447500  -0.001939  -0.013770 -26.735300   0.557423  -1.106010 -40.111100  -0.004526  -0.017316 -26.714000   0.039956   0.005401   7.581210   0.812773   4.013520  72.589600   9.951230  -6.532570  -0.254800  -8.315850  11.895100  -6.820010  -6.520810   2.773530 -43.107200  38.725800  81.294700  22.877200  -0.000253  -0.000328   6.438630   0.010466   0.008659  25.702200   4.874840  10.019600  21.379300  -0.012437   0.002168  14.965500  -0.003863   0.000000  27.607500   2.490110   4.749490  30.285300  -0.002750   0.004239  20.170000  -0.001954   0.004196  25.869400   1.559590   3.209870  25.911800  -0.005439   0.005792  17.257200  -0.001595   0.006008  27.962700   1.563790   2.942870  42.004400  -0.008159   0.003720  27.974900  -0.002189   0.005869   1.219820   6.744280   4.035280   0.919978   0.361612   7.389070  -1.307500  -5.015800   2.924380   0.000000   0.000000   0.000000   2.762630   5.637210  -5.935680   0.006571   1.310300  -2.627000  -1.696820  -3.974710   1.829510   0.000000   0.000000   0.000000
  0.219653  89.533200   0.524760  -2.305490  -3.440690  -4.664010   0.822454   1.645810   0.656806   1.626990   3.300800   1.290710   1.206980   1.653200  -0.039161   1.987400   3.347840  -3.178190  -3.195550  -0.801548   0.225266 -77.540500  17.597400   3.866010  -1.762500  -9.023810 -14.881300  12.845700 -17.796100   5.221510  40.269000  29.867300 -68.402800 -23.686000  -0.005306  -0.002211  -6.842980   0.002390  -0.024324 -23.208500   3.290380  -7.624350 -19.168200   0.029016  -0.042194 -13.417700   0.025423  -0.025297 -27.405100   0.574110  -1.107180 -28.775200  -0.004328  -0.043054 -19.164300   0.048222  -0.014556 -24.715100   0.521501  -1.132910 -24.720300   0.001498  -0.038472 -16.463700  -0.001932  -0.018032 -26.771200   0.561830  -1.113480 -40.165000  -0.004526  -0.023325 -26.749900   0.044374   0.004979   7.597830   0.782014   4.045750  72.584100   9.933510  -6.551700  -0.363872  -8.207240  12.063500  -6.854580  -6.363940   2.802650 -43.061400  38.728500  81.310400  22.927200  -0.000265  -0.000342   6.463600   0.010470   0.008684  25.717500   4.904580  10.066400  21.395300  -0.012488   0.002139  14.976700  -0.003843   0.000000  27.624800   2.517890   4.798710  30.391600  -0.002694   0.004237  20.240800  -0.001887   0.004192  25.938200   1.595240   3.276000  25.983800  -0.005349   0.005793  17.305200  -0.001542   0.006010  27.994500   1.559210   2.930470  42.051600  -0.008153   0.003675  28.006300  -0.002172   0.005804   1.229270   6.759790   4.031870   0.915231   0.356307   7.407170  -1.306260  -5.014650   2.940830  -0.000000   0.000000   0.000000   2.769500   5.644740  -5.935630   0.011720   1.300730  -2.618760  -1.700280  -3.954660   1.856010  -0.000000   0.000000   0.000000
  0.219544  89.533100   0.521098  -2.319210  -3.451960  -4.700770   0.822851   1.657920   0.653952   1.627730   3.324990   1.284810   1.221900   1.667760  -0.039111   2.011980   3.377090  -3.171040  -3.184000  -0.801467   0.262375 -77.546200  17.662000   3.866640  -1.775400  -9.041880 -14.890700  12.819500 -17.739100   5.204480  40.251400  29.838600 -68.372800 -23.695300  -0.005249  -0.002217  -6.847640   0.002369  -0.018080 -23.227800   3.291030  -7.621410 -19.183900   0.022140  -0.035629 -13.428600   0.019749  -0.027296 -27.406700   0.566660  -1.092760 -28.782300  -0.004331  -0.032760 -19.169000   0.032274  -0.012233 -24.721100   0.514790  -1.118130 -24.726300   0.001518  -0.032774 -16.467700  -0.001926  -0.016106 -26.793600   0.554837  -1.098830 -40.198400  -0.004526  -0.021167 -26.772100   0.036648   0.003161   7.605610   0.755950   4.077950  72.578700   9.893670  -6.571270  -0.490057  -8.040650  12.298800  -6.889840  -6.227930   2.835970 -43.031100  38.726200  81.309400  22.902500  -0.000272  -0.000362   6.451240   0.010481   0.008704  25.748800   4.949770  10.143200  21.426900  -0.012551   0.002107  14.998800  -0.003819   0.000161  27.651500   2.544090   4.845760  30.551600  -0.002675   0.004231  20.347400  -0.001826   0.004188  26.004000   1.592200   3.262200  26.070100  -0.005265   0.005792  17.362700  -0.001525   0.006011  28.064600   1.549090   2.903010  42.155800  -0.008147   0.003623  28.075700  -0.002153   0.005726   1.240890   6.783010   4.025730   0.910164   0.352365   7.428760  -1.304140  -5.021730   2.959770  -0.000000   0.000000  -0.000000   2.775560   5.652410  -5.935790   0.016027   1.296170  -2.614190  -1.699390  -3.938450   1.893280   0.000000   0.000000   0.000000
